<svg xmlns="http://www.w3.org/2000/svg" width="93" height="30" viewBox="0 0 93 30" fill="none"><path d="M24.7573 7.6H27.0233L35.6033 19.018V7.6H37.7813V23H35.7573L26.9353 11.208V23H24.7573V7.6ZM50.373 21.724C49.7277 22.2227 49.053 22.5967 48.349 22.846C47.645 23.0807 46.875 23.198 46.039 23.198C45.2177 23.198 44.4477 23.0513 43.729 22.758C43.0104 22.45 42.387 22.0393 41.859 21.526C41.331 21.0127 40.913 20.404 40.605 19.7C40.3117 18.9813 40.165 18.2113 40.165 17.39C40.165 16.5833 40.3117 15.828 40.605 15.124C40.8984 14.42 41.2944 13.8113 41.793 13.298C42.2917 12.7847 42.8857 12.3813 43.575 12.088C44.2644 11.78 44.9977 11.626 45.775 11.626C46.5377 11.626 47.249 11.78 47.909 12.088C48.5837 12.3813 49.1557 12.792 49.625 13.32C50.109 13.8333 50.4904 14.4493 50.769 15.168C51.0477 15.8867 51.187 16.6567 51.187 17.478V18.116H42.343C42.4897 19.04 42.915 19.81 43.619 20.426C44.323 21.0273 45.159 21.328 46.127 21.328C46.6697 21.328 47.1904 21.24 47.689 21.064C48.1877 20.888 48.613 20.646 48.965 20.338L50.373 21.724ZM45.731 13.474C44.895 13.474 44.1617 13.7527 43.531 14.31C42.915 14.8673 42.5264 15.586 42.365 16.466H49.009C48.8477 15.6153 48.459 14.904 47.843 14.332C47.2417 13.76 46.5377 13.474 45.731 13.474ZM55.4824 7.116V23H53.2824V7.6L55.4824 7.116ZM57.0174 21.548L58.2054 20.096C58.7921 20.5507 59.3861 20.9027 59.9874 21.152C60.6034 21.3867 61.2267 21.504 61.8574 21.504C62.6494 21.504 63.2947 21.35 63.7934 21.042C64.2921 20.734 64.5414 20.3307 64.5414 19.832C64.5414 19.436 64.3947 19.1207 64.1014 18.886C63.8081 18.6513 63.3534 18.49 62.7374 18.402L60.7134 18.116C59.6134 17.9547 58.7774 17.6173 58.2054 17.104C57.6481 16.576 57.3694 15.8793 57.3694 15.014C57.3694 14.002 57.7727 13.188 58.5794 12.572C59.3861 11.9413 60.4421 11.626 61.7474 11.626C62.5687 11.626 63.3461 11.7433 64.0794 11.978C64.8274 12.2127 65.5534 12.572 66.2574 13.056L65.1354 14.508C64.5194 14.0973 63.9181 13.804 63.3314 13.628C62.7594 13.4373 62.1801 13.342 61.5934 13.342C60.9187 13.342 60.3761 13.4813 59.9654 13.76C59.5547 14.0387 59.3494 14.4053 59.3494 14.86C59.3494 15.2707 59.4887 15.586 59.7674 15.806C60.0607 16.0113 60.5374 16.1653 61.1974 16.268L63.2214 16.554C64.3214 16.7153 65.1574 17.06 65.7294 17.588C66.3161 18.116 66.6094 18.8127 66.6094 19.678C66.6094 20.1767 66.4847 20.646 66.2354 21.086C66.0007 21.5113 65.6707 21.878 65.2454 22.186C64.8347 22.494 64.3434 22.7433 63.7714 22.934C63.1994 23.11 62.5834 23.198 61.9234 23.198C60.9554 23.198 60.0461 23.0587 59.1954 22.78C58.3594 22.5013 57.6334 22.0907 57.0174 21.548ZM67.9014 17.39C67.9014 16.5833 68.048 15.828 68.3414 15.124C68.6494 14.4053 69.0674 13.7893 69.5954 13.276C70.1234 12.748 70.7394 12.3373 71.4434 12.044C72.162 11.736 72.9247 11.582 73.7314 11.582C74.538 11.582 75.2934 11.736 75.9974 12.044C76.716 12.3373 77.332 12.748 77.8454 13.276C78.3734 13.7893 78.784 14.4053 79.0774 15.124C79.3854 15.828 79.5394 16.5833 79.5394 17.39C79.5394 18.2113 79.3854 18.9813 79.0774 19.7C78.784 20.404 78.3734 21.02 77.8454 21.548C77.332 22.0613 76.716 22.472 75.9974 22.78C75.2934 23.0733 74.538 23.22 73.7314 23.22C72.9247 23.22 72.162 23.0733 71.4434 22.78C70.7394 22.472 70.1234 22.0613 69.5954 21.548C69.0674 21.02 68.6494 20.404 68.3414 19.7C68.048 18.9813 67.9014 18.2113 67.9014 17.39ZM73.7314 21.284C74.7434 21.284 75.6014 20.91 76.3054 20.162C77.024 19.3993 77.3834 18.4753 77.3834 17.39C77.3834 16.3047 77.024 15.388 76.3054 14.64C75.6014 13.892 74.7434 13.518 73.7314 13.518C72.7194 13.518 71.854 13.892 71.1354 14.64C70.4167 15.388 70.0574 16.3047 70.0574 17.39C70.0574 18.4753 70.4094 19.3993 71.1134 20.162C71.832 20.91 72.7047 21.284 73.7314 21.284ZM81.6203 23V11.802H83.8203V12.924C84.2603 12.484 84.7589 12.154 85.3163 11.934C85.8883 11.6993 86.5116 11.582 87.1863 11.582C88.4623 11.582 89.5109 11.9927 90.3323 12.814C91.1536 13.6207 91.5643 14.6693 91.5643 15.96V23H89.3643V16.334C89.3643 15.454 89.1076 14.7647 88.5943 14.266C88.0956 13.7527 87.4283 13.496 86.5923 13.496C86.0056 13.496 85.4703 13.6207 84.9863 13.87C84.5169 14.1193 84.1283 14.4787 83.8203 14.948V23H81.6203Z" fill="black"></path><path d="M1 20.1429L14 9L12.2069 24" stroke="black" stroke-width="1.5"></path><path d="M5 9C6.22807 12.7336 10.7474 19.3863 19 16.1279" stroke="black" stroke-width="1.5"></path></svg>